<?xml version="1.0" encoding="UTF-8" standalone="no"?>
<!DOCTYPE svg PUBLIC "-//W3C//DTD SVG 1.0//EN" "http://www.w3.org/TR/2001/PR-SVG-20010719/DTD/svg10.dtd">
<svg width="18cm" height="11cm" viewBox="127 -80 350 215" xmlns="http://www.w3.org/2000/svg" xmlns:xlink="http://www.w3.org/1999/xlink">
  <g>
    <path style="fill: #7a7a5a" d="M 307.623 112.114 C 307.97,110.875 309.396,104.663 309.462,103.797 C 309.529,102.931 309.209,101.851 308.743,101.624 C 308.769,101.318 308.769,101.145 308.769,101.145 C 308.663,101.105 308.543,101.065 308.436,101.011 L 308.476,101.025 C 308.476,101.025 308.796,99.6385 308.996,98.6788 C 309.356,96.8394 309.396,95.9064 309.396,95.9064 C 309.382,95.6531 309.316,95.4265 309.089,95.3599 L 308.009,95.0666 C 307.783,95 307.623,95.1466 307.476,95.3732 C 307.476,95.3732 307.05,96.2263 306.463,97.9857 C 306.143,98.9054 305.85,100.078 305.85,100.078 L 305.864,100.078 C 305.224,99.865 304.571,99.6784 303.918,99.4918 C 302.238,99.0253 300.572,98.6788 298.893,98.4255 C 298.893,98.4255 298.813,98.5721 298.666,98.852 C 298.159,98.7987 297.333,99.5718 296.947,100.345 C 296.56,101.118 294.601,107.183 294.254,108.422 C 293.908,109.662 293.254,112.834 292.961,114.407 C 292.668,115.98 292.401,118.725 291.388,122.378 C 290.789,124.537 289.829,127.762 289.322,129.095 C 289.189,129.455 288.136,131.228 289.669,131.841 C 291.175,132.441 293.428,133.081 294.561,133.401 C 295.694,133.707 297.946,134.307 299.546,134.573 C 301.172,134.84 301.185,132.761 301.252,132.388 C 301.505,130.988 302.331,127.722 302.918,125.563 C 303.931,121.898 305.117,119.419 305.677,117.912 C 306.223,116.406 307.276,113.354 307.623,112.114z"/>
    <path style="fill: none; fill-opacity:0; stroke-width: 0.8; stroke: #000000" d="M 307.623 112.114 C 307.97,110.875 309.396,104.663 309.462,103.797 C 309.529,102.931 309.209,101.851 308.743,101.624 C 308.769,101.318 308.769,101.145 308.769,101.145 C 308.663,101.105 308.543,101.065 308.436,101.011 L 308.476,101.025 C 308.476,101.025 308.796,99.6385 308.996,98.6788 C 309.356,96.8394 309.396,95.9064 309.396,95.9064 C 309.382,95.6531 309.316,95.4265 309.089,95.3599 L 308.009,95.0666 C 307.783,95 307.623,95.1466 307.476,95.3732 C 307.476,95.3732 307.05,96.2263 306.463,97.9857 C 306.143,98.9054 305.85,100.078 305.85,100.078 L 305.864,100.078 C 305.224,99.865 304.571,99.6784 303.918,99.4918 C 302.238,99.0253 300.572,98.6788 298.893,98.4255 C 298.893,98.4255 298.813,98.5721 298.666,98.852 L 298.666,98.852 C 298.159,98.7987 297.333,99.5718 296.947,100.345 C 296.56,101.118 294.601,107.183 294.254,108.422 C 293.908,109.662 293.254,112.834 292.961,114.407 C 292.668,115.98 292.401,118.725 291.388,122.378 C 290.789,124.537 289.829,127.762 289.322,129.095 C 289.189,129.455 288.136,131.228 289.669,131.841 C 291.175,132.441 293.428,133.081 294.561,133.401 C 295.694,133.707 297.946,134.307 299.546,134.573 C 301.172,134.84 301.185,132.761 301.252,132.388 C 301.505,130.988 302.331,127.722 302.918,125.563 C 303.931,121.898 305.117,119.419 305.677,117.912 C 306.223,116.406 307.276,113.354 307.623,112.114"/>
    <path style="fill: #b7b79d" d="M 305.957 112.274 C 306.303,111.035 307.73,104.823 307.796,103.97 C 307.863,103.104 307.543,102.011 307.076,101.798 C 307.103,101.491 307.103,101.318 307.103,101.318 C 306.996,101.265 306.877,101.225 306.77,101.185 L 306.797,101.198 C 306.797,101.198 307.13,99.8117 307.33,98.852 C 307.69,96.9993 307.716,96.0663 307.716,96.0663 C 307.716,95.8131 307.65,95.5998 307.423,95.5332 L 306.343,95.2399 C 306.117,95.1733 305.957,95.3199 305.81,95.5465 C 305.81,95.5465 305.384,96.3995 304.797,98.1456 C 304.477,99.0786 304.184,100.238 304.184,100.238 L 304.197,100.252 C 303.558,100.038 302.905,99.8384 302.251,99.6651 C 300.572,99.1986 298.893,98.8387 297.226,98.5855 C 297.226,98.5855 297.146,98.7454 297,99.012 C 296.493,98.972 295.667,99.7318 295.28,100.505 C 294.894,101.278 292.935,107.343 292.588,108.595 C 292.241,109.835 291.588,112.994 291.295,114.567 C 291.002,116.14 290.735,118.885 289.722,122.551 C 289.122,124.71 288.163,127.922 287.656,129.269 C 287.523,129.615 286.47,131.401 288.003,132.014 C 289.509,132.601 291.762,133.254 292.895,133.56 C 294.027,133.88 296.28,134.467 297.88,134.733 C 299.506,135 299.519,132.934 299.586,132.561 C 299.839,131.148 300.665,127.896 301.252,125.736 C 302.265,122.071 303.451,119.578 304.011,118.072 C 304.557,116.579 305.61,113.527 305.957,112.274z"/>
    <path style="fill: none; fill-opacity:0; stroke-width: 0.8; stroke: #000000" d="M 305.957 112.274 C 306.303,111.035 307.73,104.823 307.796,103.97 C 307.863,103.104 307.543,102.011 307.076,101.798 C 307.103,101.491 307.103,101.318 307.103,101.318 C 306.996,101.265 306.877,101.225 306.77,101.185 L 306.797,101.198 C 306.797,101.198 307.13,99.8117 307.33,98.852 C 307.69,96.9993 307.716,96.0663 307.716,96.0663 C 307.716,95.8131 307.65,95.5998 307.423,95.5332 L 306.343,95.2399 C 306.117,95.1733 305.957,95.3199 305.81,95.5465 C 305.81,95.5465 305.384,96.3995 304.797,98.1456 C 304.477,99.0786 304.184,100.238 304.184,100.238 L 304.197,100.252 C 303.558,100.038 302.905,99.8384 302.251,99.6651 C 300.572,99.1986 298.893,98.8387 297.226,98.5855 C 297.226,98.5855 297.146,98.7454 297,99.012 L 297,99.012 C 296.493,98.972 295.667,99.7318 295.28,100.505 C 294.894,101.278 292.935,107.343 292.588,108.595 C 292.241,109.835 291.588,112.994 291.295,114.567 C 291.002,116.14 290.735,118.885 289.722,122.551 C 289.122,124.71 288.163,127.922 287.656,129.269 C 287.523,129.615 286.47,131.401 288.003,132.014 C 289.509,132.601 291.762,133.254 292.895,133.56 C 294.027,133.88 296.28,134.467 297.88,134.733 C 299.506,135 299.519,132.934 299.586,132.561 C 299.839,131.148 300.665,127.896 301.252,125.736 C 302.265,122.071 303.451,119.578 304.011,118.072 C 304.557,116.579 305.61,113.527 305.957,112.274"/>
    <path style="fill: #c9c9b6" d="M 297.44 98.6255 C 297.44,98.6255 295.24,103.117 293.974,107.676 C 292.481,113.101 292.268,114.9 292.495,117.419 C 292.535,117.939 293.054,118.579 293.628,118.739 C 293.854,118.792 294.121,118.872 294.227,118.899 C 294.347,118.939 294.774,119.032 295.12,119.312 C 295.48,119.592 295.56,119.658 295.774,119.765 C 295.973,119.885 296.013,119.965 296.6,120.125 C 297.186,120.285 297.253,120.245 297.493,120.245 C 297.733,120.258 297.84,120.245 298.293,120.192 C 298.733,120.125 299.146,120.258 299.266,120.285 C 299.372,120.325 299.639,120.392 299.866,120.458 C 300.439,120.618 301.212,120.338 301.518,119.912 C 302.998,117.872 303.744,116.206 305.237,110.781 C 306.49,106.223 306.903,101.238 306.903,101.238 L 297.44,98.6255z"/>
    <path style="fill: none; fill-opacity:0; stroke-width: 0.8; stroke: #ecece7" d="M 297.44 98.6255 C 297.44,98.6255 295.24,103.117 293.974,107.676 C 292.481,113.101 292.268,114.9 292.495,117.419 C 292.535,117.939 293.054,118.579 293.628,118.739 C 293.854,118.792 294.121,118.872 294.227,118.899 C 294.347,118.939 294.774,119.032 295.12,119.312 C 295.48,119.592 295.56,119.658 295.774,119.765 C 295.973,119.885 296.013,119.965 296.6,120.125 C 297.186,120.285 297.253,120.245 297.493,120.245 C 297.733,120.258 297.84,120.245 298.293,120.192 C 298.733,120.125 299.146,120.258 299.266,120.285 C 299.372,120.325 299.639,120.392 299.866,120.458 C 300.439,120.618 301.212,120.338 301.518,119.912 C 302.998,117.872 303.744,116.206 305.237,110.781 C 306.49,106.223 306.903,101.238 306.903,101.238 L 297.44,98.6255"/>
    <path style="fill: #000000" d="M 300.105 117.446 C 299.719,118.872 298.239,119.698 296.827,119.312 C 295.4,118.925 294.574,117.446 294.961,116.033 C 295.36,114.607 296.827,113.78 298.239,114.167 C 299.666,114.567 300.492,116.033 300.105,117.446z"/>
    <path style="fill: #000000" d="M 295.187 113.074 C 295.547,113.181 295.827,113.327 295.96,113.407 C 296.093,113.5 296.133,113.62 296.013,113.7 C 295.894,113.78 295.68,113.94 295.56,114.047 C 295.414,114.167 295.32,114.194 295.12,114.074 C 294.761,113.874 294.001,113.327 293.814,113.074 C 293.708,112.941 293.801,112.887 294.001,112.874 C 294.267,112.861 294.801,112.967 295.187,113.074z"/>
    <path style="fill: #ff0000" d="M 293.294 115.886 C 293.494,115.953 293.974,116.193 294.107,116.3 C 294.254,116.393 294.467,116.619 294.454,116.886 C 294.427,117.193 294.454,117.846 294.587,118.059 C 294.761,118.339 294.734,118.459 294.481,118.419 C 294.281,118.379 293.761,118.192 293.614,118.112 C 293.468,118.046 293.254,117.912 293.188,117.712 C 293.054,117.299 293.014,116.446 293.094,116.02 C 293.121,115.846 293.201,115.846 293.294,115.886z"/>
    <path style="fill: none; fill-opacity:0; stroke-width: 0.8; stroke: #ffffff" d="M 300.105 117.446 C 299.719,118.872 298.239,119.698 296.827,119.312 C 295.4,118.925 294.574,117.446 294.961,116.033 C 295.36,114.607 296.827,113.78 298.239,114.167 C 299.666,114.567 300.492,116.033 300.105,117.446"/>
    <path style="fill: none; fill-opacity:0; stroke-width: 0.8; stroke: #ffffff" d="M 295.187 113.074 C 295.547,113.181 295.827,113.327 295.96,113.407 C 296.093,113.5 296.133,113.62 296.013,113.7 C 295.894,113.78 295.68,113.94 295.56,114.047 C 295.414,114.167 295.32,114.194 295.12,114.074 C 294.761,113.874 294.001,113.327 293.814,113.074 C 293.708,112.941 293.801,112.887 294.001,112.874 C 294.267,112.861 294.801,112.967 295.187,113.074"/>
    <path style="fill: none; fill-opacity:0; stroke-width: 0.8; stroke: #ffffff" d="M 293.294 115.886 C 293.494,115.953 293.974,116.193 294.107,116.3 C 294.254,116.393 294.467,116.619 294.454,116.886 C 294.427,117.193 294.454,117.846 294.587,118.059 C 294.761,118.339 294.734,118.459 294.481,118.419 C 294.281,118.379 293.761,118.192 293.614,118.112 C 293.468,118.046 293.254,117.912 293.188,117.712 C 293.054,117.299 293.014,116.446 293.094,116.02 C 293.121,115.846 293.201,115.846 293.294,115.886"/>
    <path style="fill: #000000" d="M 301.425 114.793 C 301.065,114.7 300.759,114.687 300.599,114.687 C 300.439,114.7 300.345,114.78 300.399,114.9 C 300.465,115.033 300.572,115.287 300.612,115.433 C 300.679,115.606 300.745,115.686 300.972,115.7 C 301.385,115.7 302.318,115.62 302.611,115.5 C 302.758,115.433 302.705,115.34 302.545,115.233 C 302.318,115.087 301.812,114.9 301.425,114.793z"/>
    <path style="fill: #00ff00" d="M 301.612 118.179 C 301.412,118.126 300.865,118.099 300.692,118.112 C 300.532,118.126 300.225,118.206 300.105,118.446 C 299.972,118.725 299.612,119.272 299.386,119.392 C 299.092,119.538 299.052,119.658 299.292,119.738 C 299.479,119.818 300.025,119.925 300.185,119.938 C 300.359,119.952 300.599,119.952 300.759,119.805 C 301.105,119.525 301.558,118.805 301.718,118.406 C 301.785,118.246 301.718,118.206 301.612,118.179z"/>
    <path style="fill: none; fill-opacity:0; stroke-width: 0.8; stroke: #ffffff" d="M 301.425 114.793 C 301.065,114.7 300.759,114.687 300.599,114.687 C 300.439,114.7 300.345,114.78 300.399,114.9 C 300.465,115.033 300.572,115.287 300.612,115.433 C 300.679,115.606 300.745,115.686 300.972,115.7 C 301.385,115.7 302.318,115.62 302.611,115.5 C 302.758,115.433 302.705,115.34 302.545,115.233 C 302.318,115.087 301.812,114.9 301.425,114.793"/>
    <path style="fill: none; fill-opacity:0; stroke-width: 0.8; stroke: #ffffff" d="M 301.612 118.179 C 301.412,118.126 300.865,118.099 300.692,118.112 C 300.532,118.126 300.225,118.206 300.105,118.446 C 299.972,118.725 299.612,119.272 299.386,119.392 C 299.092,119.538 299.052,119.658 299.292,119.738 C 299.479,119.818 300.025,119.925 300.185,119.938 C 300.359,119.952 300.599,119.952 300.759,119.805 C 301.105,119.525 301.558,118.805 301.718,118.406 C 301.785,118.246 301.718,118.206 301.612,118.179"/>
    <path style="fill: none; fill-opacity:0; stroke-width: 0.8; stroke: #ffffff" d="M 301.172 102.784 L 302.051,99.5985"/>
    <path style="fill: none; fill-opacity:0; stroke-width: 0.8; stroke: #ffffff" d="M 301.465 102.864 L 302.345,99.6784"/>
    <path style="fill: none; fill-opacity:0; stroke-width: 0.8; stroke: #000000" d="M 307.716 95.933 C 307.716,95.933 307.21,95.7864 306.783,95.6798 C 306.41,95.5731 305.877,95.4265 305.877,95.4265"/>
    <path style="fill: none; fill-opacity:0; stroke-width: 0.8; stroke: #000000" d="M 305.957 112.274 C 306.303,111.035 307.73,104.823 307.796,103.97 C 307.863,103.104 307.543,102.011 307.076,101.798 C 307.103,101.491 307.103,101.318 307.103,101.318 C 306.996,101.265 306.877,101.225 306.77,101.185 L 306.797,101.198 C 306.797,101.198 307.13,99.8117 307.33,98.852 C 307.69,96.9993 307.716,96.0663 307.716,96.0663 C 307.716,95.8131 307.65,95.5998 307.423,95.5332 L 306.343,95.2399 C 306.117,95.1733 305.957,95.3199 305.81,95.5465 C 305.81,95.5465 305.384,96.3995 304.797,98.1456 C 304.477,99.0786 304.184,100.238 304.184,100.238 L 304.197,100.252 C 303.558,100.038 302.905,99.8384 302.251,99.6651 C 300.572,99.1986 298.893,98.8387 297.226,98.5855 C 297.226,98.5855 297.146,98.7454 297,99.012 L 297,99.012 C 296.493,98.972 295.667,99.7318 295.28,100.505 C 294.894,101.278 292.935,107.343 292.588,108.595 C 292.241,109.835 291.588,112.994 291.295,114.567 C 291.002,116.14 290.735,118.885 289.722,122.551 C 289.122,124.71 288.163,127.922 287.656,129.269 C 287.523,129.615 286.47,131.401 288.003,132.014 C 289.509,132.601 291.762,133.254 292.895,133.56 C 294.027,133.88 296.28,134.467 297.88,134.733 C 299.506,135 299.519,132.934 299.586,132.561 C 299.839,131.148 300.665,127.896 301.252,125.736 C 302.265,122.071 303.451,119.578 304.011,118.072 C 304.557,116.579 305.61,113.527 305.957,112.274"/>
    <path style="fill: #000000" d="M 294.227 120.991 C 294.054,121.618 293.401,121.991 292.761,121.818 C 292.121,121.644 291.748,120.991 291.922,120.352 C 292.108,119.712 292.761,119.339 293.401,119.512 C 294.041,119.685 294.414,120.352 294.227,120.991z"/>
    <path style="fill: none; fill-opacity:0; stroke-width: 0.02; stroke: #ffffff" d="M 294.227 120.991 C 294.054,121.618 293.401,121.991 292.761,121.818 C 292.121,121.644 291.748,120.991 291.922,120.352 C 292.108,119.712 292.761,119.339 293.401,119.512 C 294.041,119.685 294.414,120.352 294.227,120.991"/>
    <path style="fill: #000000" d="M 297.253 122.258 C 297.08,122.897 296.413,123.271 295.774,123.097 C 295.147,122.924 294.774,122.258 294.947,121.631 C 295.12,120.991 295.774,120.618 296.413,120.791 C 297.053,120.965 297.426,121.631 297.253,122.258z"/>
    <path style="fill: none; fill-opacity:0; stroke-width: 0.02; stroke: #ffffff" d="M 297.253 122.258 C 297.08,122.897 296.413,123.271 295.774,123.097 C 295.147,122.924 294.774,122.258 294.947,121.631 C 295.12,120.991 295.774,120.618 296.413,120.791 C 297.053,120.965 297.426,121.631 297.253,122.258"/>
    <path style="fill: #000000" d="M 300.505 122.724 C 300.332,123.351 299.666,123.724 299.026,123.55 C 298.399,123.377 298.026,122.724 298.199,122.084 C 298.373,121.445 299.026,121.071 299.666,121.245 C 300.305,121.418 300.679,122.084 300.505,122.724z"/>
    <path style="fill: none; fill-opacity:0; stroke-width: 0.02; stroke: #ffffff" d="M 300.505 122.724 C 300.332,123.351 299.666,123.724 299.026,123.55 C 298.399,123.377 298.026,122.724 298.199,122.084 C 298.373,121.445 299.026,121.071 299.666,121.245 C 300.305,121.418 300.679,122.084 300.505,122.724"/>
    <path style="fill: #000000" d="M 293.508 123.617 C 293.334,124.257 292.668,124.63 292.041,124.444 C 291.402,124.27 291.028,123.617 291.202,122.977 C 291.375,122.338 292.041,121.964 292.668,122.138 C 293.308,122.324 293.681,122.977 293.508,123.617z"/>
    <path style="fill: none; fill-opacity:0; stroke-width: 0.02; stroke: #ffffff" d="M 293.508 123.617 C 293.334,124.257 292.668,124.63 292.041,124.444 C 291.402,124.27 291.028,123.617 291.202,122.977 C 291.375,122.338 292.041,121.964 292.668,122.138 C 293.308,122.324 293.681,122.977 293.508,123.617"/>
    <path style="fill: #000000" d="M 296.52 124.897 C 296.347,125.536 295.694,125.91 295.054,125.723 C 294.414,125.55 294.041,124.897 294.214,124.257 C 294.401,123.617 295.054,123.244 295.694,123.417 C 296.32,123.604 296.707,124.257 296.52,124.897z"/>
    <path style="fill: none; fill-opacity:0; stroke-width: 0.02; stroke: #ffffff" d="M 296.52 124.897 C 296.347,125.536 295.694,125.91 295.054,125.723 C 294.414,125.55 294.041,124.897 294.214,124.257 C 294.401,123.617 295.054,123.244 295.694,123.417 C 296.32,123.604 296.707,124.257 296.52,124.897"/>
    <path style="fill: #000000" d="M 299.786 125.35 C 299.599,125.976 298.946,126.363 298.306,126.176 C 297.666,126.003 297.293,125.35 297.466,124.71 C 297.653,124.07 298.306,123.697 298.946,123.87 C 299.586,124.057 299.959,124.71 299.786,125.35z"/>
    <path style="fill: none; fill-opacity:0; stroke-width: 0.02; stroke: #ffffff" d="M 299.786 125.35 C 299.599,125.976 298.946,126.363 298.306,126.176 C 297.666,126.003 297.293,125.35 297.466,124.71 C 297.653,124.07 298.306,123.697 298.946,123.87 C 299.586,124.057 299.959,124.71 299.786,125.35"/>
    <path style="fill: #000000" d="M 292.788 126.243 C 292.615,126.883 291.948,127.256 291.308,127.083 C 290.682,126.909 290.295,126.243 290.482,125.603 C 290.655,124.977 291.308,124.59 291.948,124.777 C 292.588,124.95 292.961,125.603 292.788,126.243z"/>
    <path style="fill: none; fill-opacity:0; stroke-width: 0.02; stroke: #ffffff" d="M 292.788 126.243 C 292.615,126.883 291.948,127.256 291.308,127.083 C 290.682,126.909 290.295,126.243 290.482,125.603 C 290.655,124.977 291.308,124.59 291.948,124.777 C 292.588,124.95 292.961,125.603 292.788,126.243"/>
    <path style="fill: #000000" d="M 295.8 127.522 C 295.627,128.162 294.961,128.535 294.334,128.362 C 293.694,128.189 293.321,127.522 293.494,126.883 C 293.668,126.243 294.334,125.883 294.961,126.056 C 295.6,126.23 295.973,126.883 295.8,127.522z"/>
    <path style="fill: none; fill-opacity:0; stroke-width: 0.02; stroke: #ffffff" d="M 295.8 127.522 C 295.627,128.162 294.961,128.535 294.334,128.362 C 293.694,128.189 293.321,127.522 293.494,126.883 C 293.668,126.243 294.334,125.883 294.961,126.056 C 295.6,126.23 295.973,126.883 295.8,127.522"/>
    <path style="fill: #000000" d="M 299.052 127.976 C 298.879,128.615 298.213,128.989 297.586,128.802 C 296.947,128.629 296.573,127.976 296.747,127.336 C 296.92,126.696 297.586,126.323 298.213,126.509 C 298.853,126.683 299.226,127.336 299.052,127.976z"/>
    <path style="fill: none; fill-opacity:0; stroke-width: 0.02; stroke: #ffffff" d="M 299.052 127.976 C 298.879,128.615 298.213,128.989 297.586,128.802 C 296.947,128.629 296.573,127.976 296.747,127.336 C 296.92,126.696 297.586,126.323 298.213,126.509 C 298.853,126.683 299.226,127.336 299.052,127.976"/>
    <path style="fill: #000000" d="M 292.055 128.869 C 291.882,129.508 291.215,129.882 290.589,129.708 C 289.949,129.535 289.576,128.882 289.749,128.242 C 289.922,127.602 290.589,127.229 291.215,127.403 C 291.855,127.576 292.228,128.242 292.055,128.882 L 292.055,128.869z"/>
    <path style="fill: none; fill-opacity:0; stroke-width: 0.02; stroke: #ffffff" d="M 292.055 128.869 C 291.882,129.508 291.215,129.882 290.589,129.708 C 289.949,129.535 289.576,128.882 289.749,128.242 C 289.922,127.602 290.589,127.229 291.215,127.403 C 291.855,127.576 292.228,128.242 292.055,128.882 L 292.055,128.869"/>
    <path style="fill: #000000" d="M 295.08 130.148 C 294.894,130.788 294.241,131.161 293.601,130.988 C 292.961,130.815 292.588,130.148 292.775,129.522 C 292.948,128.882 293.601,128.509 294.241,128.682 C 294.881,128.855 295.254,129.522 295.08,130.148z"/>
    <path style="fill: none; fill-opacity:0; stroke-width: 0.02; stroke: #ffffff" d="M 295.08 130.148 C 294.894,130.788 294.241,131.161 293.601,130.988 C 292.961,130.815 292.588,130.148 292.775,129.522 C 292.948,128.882 293.601,128.509 294.241,128.682 C 294.881,128.855 295.254,129.522 295.08,130.148"/>
    <path style="fill: #000000" d="M 298.333 130.601 C 298.146,131.241 297.493,131.614 296.853,131.441 C 296.213,131.268 295.84,130.601 296.027,129.962 C 296.2,129.335 296.853,128.962 297.493,129.135 C 298.133,129.309 298.506,129.962 298.333,130.601z"/>
    <path style="fill: none; fill-opacity:0; stroke-width: 0.02; stroke: #ffffff" d="M 298.333 130.601 C 298.146,131.241 297.493,131.614 296.853,131.441 C 296.213,131.268 295.84,130.601 296.027,129.962 C 296.2,129.335 296.853,128.962 297.493,129.135 C 298.133,129.309 298.506,129.962 298.333,130.601"/>
    <path style="fill: none; fill-opacity:0; stroke-width: 0.8; stroke: #ffffff" d="M 293.561 131.934 C 293.548,131.988 293.441,132.014 293.321,131.988 C 293.214,131.948 293.134,131.881 293.161,131.814 C 293.174,131.761 293.281,131.734 293.388,131.761 C 293.494,131.788 293.574,131.868 293.561,131.921"/>
    <path style="fill: none; fill-opacity:0; stroke-width: 0.8; stroke: #ffffff" d="M 293.161 131.814 L 292.775,133.187"/>
    <path style="fill: none; fill-opacity:0; stroke-width: 0.8; stroke: #ffffff" d="M 293.214 131.934 L 292.868,133.214"/>
    <path style="fill: none; fill-opacity:0; stroke-width: 0.8; stroke: #ffffff" d="M 293.561 131.934 L 293.174,133.294"/>
    <path style="fill: none; fill-opacity:0; stroke-width: 0.8; stroke: #ffffff" d="M 293.441 131.988 L 293.094,133.267"/>
    <path style="fill: none; fill-opacity:0; stroke-width: 0.8; stroke: #ffffff" d="M 295.867 112.114 L 295.6,113.061"/>
    <path style="fill: none; fill-opacity:0; stroke-width: 0.8; stroke: #ffffff" d="M 295.973 112.141 L 295.707,113.101"/>
    <path style="fill: none; fill-opacity:0; stroke-width: 0.8; stroke: #ffffff" d="M 301.345 113.62 L 301.078,114.58"/>
    <path style="fill: none; fill-opacity:0; stroke-width: 0.8; stroke: #ffffff" d="M 301.238 113.594 L 300.972,114.553"/>
    <path style="fill: none; fill-opacity:0; stroke-width: 0.8; stroke: #000000" d="M 306.797 101.198 C 306.797,101.198 307.13,99.8117 307.33,98.852 C 307.69,96.9993 307.716,96.0663 307.716,96.0663 C 307.716,95.8131 307.65,95.5998 307.423,95.5332 L 306.343,95.2399 C 306.117,95.1733 305.957,95.3199 305.81,95.5465 C 305.81,95.5465 305.384,96.3995 304.797,98.1456 C 304.477,99.0786 304.184,100.238 304.184,100.238"/>
    <path style="fill: none; fill-opacity:0; stroke-width: 0.8; stroke: #000000" d="M 306.93 100.691 C 306.063,100.358 305.197,100.052 304.304,99.7717"/>
    <path style="fill: none; fill-opacity:0; stroke-width: 0.8; stroke: #ffffff" d="M 296.147 100.878 C 297.92,101.131 299.826,101.531 301.598,102.024 C 303.371,102.517 305.21,103.144 306.863,103.837"/>
    <path style="fill: #b7b79d" d="M 303.758 113.834 C 303.691,114.074 303.451,114.207 303.211,114.14 L 293.987,111.594 C 293.748,111.528 293.614,111.288 293.681,111.061 L 295.294,105.223 C 295.36,104.983 295.6,104.85 295.827,104.917 L 305.064,107.463 C 305.304,107.529 305.437,107.769 305.37,108.009 L 303.758,113.847 L 303.758,113.834z"/>
    <path style="fill: none; fill-opacity:0; stroke-width: 0.8; stroke: #ffffff" d="M 303.758 113.834 C 303.691,114.074 303.451,114.207 303.211,114.14 L 293.987,111.594 C 293.748,111.528 293.614,111.288 293.681,111.061 L 295.294,105.223 C 295.36,104.983 295.6,104.85 295.827,104.917 L 305.064,107.463 C 305.304,107.529 305.437,107.769 305.37,108.009 L 303.758,113.847 L 303.758,113.834"/>
    <path style="fill: none; fill-opacity:0; stroke-width: 0.8; stroke: #ffffff" d="M 301.172 102.784 L 302.051,99.5985"/>
    <path style="fill: none; fill-opacity:0; stroke-width: 0.8; stroke: #ffffff" d="M 301.465 102.864 L 302.345,99.6784"/>
  </g>
  <g>
    <path style="fill: #a5a585" d="M 184.492 31.2587 L 184.454,30.7607 L 184.345,30.2706 L 184.158,29.7804 L 183.901,29.298 L 183.582,28.8156 L 183.185,28.341 L 182.718,27.8741 L 182.182,27.4151 L 181.575,26.9638 L 180.906,26.5359 L 180.174,26.108 L 179.388,25.6878 L 178.525,25.291 L 177.614,24.9097 L 176.65,24.5441 L 175.623,24.1939 L 174.557,23.8671 L 173.436,23.5559 L 172.277,23.268 L 171.063,22.9957 L 169.826,22.739 L 168.542,22.5133 L 167.227,22.2955 L 165.897,22.1165 L 164.527,21.9609 L 163.135,21.8286 L 161.734,21.7119 L 160.31,21.6341 L 158.879,21.5641 L 157.439,21.5174 L 156,21.5174 L 156,21.5174 L 154.553,21.5174 L 153.113,21.5641 L 151.682,21.6341 L 150.258,21.7119 L 148.857,21.8286 L 147.465,21.9609 L 146.103,22.1165 L 144.765,22.2955 L 143.45,22.5133 L 142.166,22.739 L 140.929,22.9957 L 139.723,23.268 L 138.564,23.5559 L 137.443,23.8671 L 136.369,24.1939 L 135.342,24.5441 L 134.385,24.9097 L 133.467,25.291 L 132.611,25.6878 L 131.818,26.108 L 131.086,26.5359 L 130.417,26.9638 L 129.81,27.4151 L 129.274,27.8741 L 128.807,28.341 L 128.41,28.8156 L 128.091,29.298 L 127.834,29.7804 L 127.647,30.2706 L 127.546,30.7607 L 127.507,31.2587 L 127.507,31.2587 L 127.546,31.7567 L 127.647,32.2391 L 127.834,32.737 L 128.091,33.2194 L 128.41,33.7018 L 128.807,34.1764 L 129.274,34.6433 L 129.81,35.1023 L 130.417,35.5458 L 131.086,35.9815 L 131.818,36.4095 L 132.611,36.8296 L 133.467,37.2264 L 134.385,37.6077 L 135.342,37.9734 L 136.369,38.3235 L 137.443,38.6503 L 138.564,38.9615 L 139.723,39.2494 L 140.929,39.5217 L 142.166,39.7784 L 143.45,40.0041 L 144.765,40.2142 L 146.103,40.4009 L 147.465,40.5565 L 148.857,40.6888 L 150.258,40.7977 L 151.682,40.8833 L 153.113,40.9455 L 154.553,40.9922 L 156,41 L 156,41 L 157.439,40.9922 L 158.879,40.9455 L 160.31,40.8833 L 161.734,40.7977 L 163.135,40.6888 L 164.527,40.5565 L 165.897,40.4009 L 167.227,40.2142 L 168.542,40.0041 L 169.826,39.7784 L 171.063,39.5217 L 172.277,39.2494 L 173.436,38.9615 L 174.557,38.6503 L 175.623,38.3235 L 176.65,37.9734 L 177.614,37.6077 L 178.525,37.2264 L 179.388,36.8296 L 180.174,36.4095 L 180.906,35.9815 L 181.575,35.5458 L 182.182,35.1023 L 182.718,34.6433 L 183.185,34.1764 L 183.582,33.7018 L 183.901,33.2194 L 184.158,32.737 L 184.345,32.2391 L 184.454,31.7567 L 184.492,31.2587z"/>
    <path style="fill: none; fill-opacity:0; stroke-width: 0.02; stroke: #494936" d="M 184.158 31.1031 L 184.119,30.6051 L 184.018,30.1305 L 183.839,29.6481 L 183.59,29.1735 L 183.255,28.6911 L 182.851,28.2321 L 182.407,27.7652 L 181.863,27.3295 L 181.263,26.886 L 180.602,26.4503 L 179.871,26.0379 L 179.085,25.6256 L 178.237,25.2365 L 177.342,24.8475 L 176.362,24.4974 L 175.342,24.155 L 174.277,23.8282 L 173.172,23.5248 L 172.02,23.2447 L 170.822,22.9724 L 169.577,22.7312 L 168.309,22.5055 L 167.002,22.2955 L 165.679,22.1165 L 164.325,21.9609 L 162.932,21.8364 L 161.54,21.7119 L 160.124,21.6419 L 158.708,21.5797 L 157.26,21.5408 L 155.829,21.5174 L 155.829,21.5174 L 154.397,21.5408 L 152.965,21.5797 L 151.534,21.6419 L 150.133,21.7119 L 148.733,21.8364 L 147.348,21.9609 L 145.986,22.1165 L 144.656,22.2955 L 143.356,22.5055 L 142.088,22.7312 L 140.843,22.9724 L 139.645,23.2447 L 138.501,23.5248 L 137.381,23.8282 L 136.307,24.155 L 135.296,24.4974 L 134.331,24.8475 L 133.436,25.2365 L 132.58,25.6256 L 131.787,26.0379 L 131.071,26.4503 L 130.41,26.886 L 129.795,27.3295 L 129.266,27.7652 L 128.807,28.2321 L 128.41,28.6911 L 128.083,29.1735 L 127.826,29.6481 L 127.647,30.1305 L 127.546,30.6051 L 127.507,31.1031 L 127.507,31.1031 L 127.546,31.5855 L 127.647,32.0601 L 127.826,32.5503 L 128.083,33.0249 L 128.41,33.4995 L 128.807,33.9663 L 129.266,34.4254 L 129.795,34.8689 L 130.41,35.3046 L 131.071,35.7481 L 131.787,36.1683 L 132.58,36.5651 L 133.436,36.9619 L 134.331,37.3431 L 135.296,37.701 L 136.307,38.0434 L 137.381,38.3624 L 138.501,38.6736 L 139.645,38.9537 L 140.843,39.226 L 142.088,39.475 L 143.356,39.6929 L 144.656,39.8952 L 145.986,40.0741 L 147.348,40.2297 L 148.733,40.362 L 150.133,40.4787 L 151.534,40.5565 L 152.965,40.6188 L 154.397,40.6577 L 155.829,40.6732 L 155.829,40.6732 L 157.26,40.6577 L 158.708,40.6188 L 160.124,40.5565 L 161.54,40.4787 L 162.932,40.362 L 164.325,40.2297 L 165.679,40.0741 L 167.002,39.8952 L 168.309,39.6929 L 169.577,39.475 L 170.822,39.226 L 172.02,38.9537 L 173.172,38.6736 L 174.277,38.3624 L 175.342,38.0434 L 176.362,37.701 L 177.342,37.3431 L 178.237,36.9619 L 179.085,36.5651 L 179.871,36.1683 L 180.602,35.7481 L 181.263,35.3046 L 181.863,34.8689 L 182.407,34.4254 L 182.851,33.9663 L 183.255,33.4995 L 183.59,33.0249 L 183.839,32.5503 L 184.018,32.0601 L 184.119,31.5855 L 184.158,31.1031"/>
    <path style="fill: #a5a585" d="M 127.507 10.9125 L 127.507,31.4299 L 184.158,31.4299 L 184.158,10.9125 L 127.507,10.9125z"/>
    <path style="fill: #c9c9b6" d="M 184.492 10.7413 L 184.454,10.2356 L 184.345,9.74538 L 184.158,9.26298 L 183.901,8.78059 L 183.582,8.29041 L 183.185,7.81579 L 182.718,7.34118 L 182.182,6.89769 L 181.575,6.45419 L 180.906,6.00292 L 180.174,5.59055 L 179.388,5.17039 L 178.525,4.7658 L 177.614,4.39234 L 176.65,4.02665 L 175.623,3.66874 L 174.557,3.34196 L 173.436,3.03851 L 172.277,2.74285 L 171.063,2.47053 L 169.826,2.22155 L 168.542,1.99592 L 167.227,1.78584 L 165.897,1.59911 L 164.527,1.44349 L 163.135,1.31122 L 161.734,1.2023 L 160.31,1.11671 L 158.879,1.04668 L 157.439,1.00778 L 156,1 L 156,1 L 154.553,1.00778 L 153.113,1.04668 L 151.682,1.11671 L 150.258,1.2023 L 148.857,1.31122 L 147.465,1.44349 L 146.103,1.59911 L 144.765,1.78584 L 143.45,1.99592 L 142.166,2.22155 L 140.929,2.47053 L 139.723,2.74285 L 138.564,3.03851 L 137.443,3.34196 L 136.369,3.66874 L 135.342,4.02665 L 134.385,4.39234 L 133.467,4.7658 L 132.611,5.17039 L 131.818,5.59055 L 131.086,6.00292 L 130.417,6.45419 L 129.81,6.89769 L 129.274,7.34118 L 128.807,7.81579 L 128.41,8.29041 L 128.091,8.78059 L 127.834,9.26298 L 127.647,9.74538 L 127.546,10.2356 L 127.507,10.7413 L 127.507,10.7413 L 127.546,11.2315 L 127.647,11.7294 L 127.834,12.204 L 128.091,12.702 L 128.41,13.1766 L 128.807,13.659 L 129.274,14.1259 L 129.81,14.5771 L 130.417,15.0284 L 131.086,15.4641 L 131.818,15.892 L 132.611,16.3044 L 133.467,16.7012 L 134.385,17.0825 L 135.342,17.4559 L 136.369,17.7983 L 137.443,18.1329 L 138.564,18.4441 L 139.723,18.732 L 140.929,19.0043 L 142.166,19.261 L 143.45,19.4789 L 144.765,19.6968 L 146.103,19.8757 L 147.465,20.0313 L 148.857,20.1714 L 150.258,20.2725 L 151.682,20.3659 L 153.113,20.4281 L 154.553,20.467 L 156,20.4826 L 156,20.4826 L 157.439,20.467 L 158.879,20.4281 L 160.31,20.3659 L 161.734,20.2725 L 163.135,20.1714 L 164.527,20.0313 L 165.897,19.8757 L 167.227,19.6968 L 168.542,19.4789 L 169.826,19.261 L 171.063,19.0043 L 172.277,18.732 L 173.436,18.4441 L 174.557,18.1329 L 175.623,17.7983 L 176.65,17.4559 L 177.614,17.0825 L 178.525,16.7012 L 179.388,16.3044 L 180.174,15.892 L 180.906,15.4641 L 181.575,15.0284 L 182.182,14.5771 L 182.718,14.1259 L 183.185,13.659 L 183.582,13.1766 L 183.901,12.702 L 184.158,12.204 L 184.345,11.7294 L 184.454,11.2315 L 184.492,10.7413z"/>
    <path style="fill: none; fill-opacity:0; stroke-width: 0.02; stroke: #494936" d="M 184.158 10.5857 L 184.119,10.0877 L 184.018,9.61311 L 183.839,9.13849 L 183.59,8.6561 L 183.255,8.16592 L 182.851,7.70687 L 182.407,7.26337 L 181.863,6.80432 L 181.263,6.36861 L 180.602,5.92511 L 179.871,5.52052 L 179.085,5.10815 L 178.237,4.71134 L 177.342,4.34565 L 176.362,3.97996 L 175.342,3.6454 L 174.277,3.31862 L 173.172,3.00739 L 172.02,2.71951 L 170.822,2.45497 L 169.577,2.21377 L 168.309,1.98813 L 167.002,1.78584 L 165.679,1.59911 L 164.325,1.44349 L 162.932,1.31122 L 161.54,1.2023 L 160.124,1.11671 L 159.649,1.09337 L 152.008,1.09337 L 151.534,1.11671 L 150.133,1.2023 L 148.733,1.31122 L 147.348,1.44349 L 145.986,1.59911 L 144.656,1.78584 L 143.356,1.98813 L 142.088,2.21377 L 140.843,2.45497 L 139.645,2.71951 L 138.501,3.00739 L 137.381,3.31862 L 136.307,3.6454 L 135.296,3.97996 L 134.331,4.34565 L 133.436,4.71134 L 132.58,5.10815 L 131.787,5.52052 L 131.071,5.92511 L 130.41,6.36861 L 129.795,6.80432 L 129.266,7.26337 L 128.807,7.70687 L 128.41,8.16592 L 128.083,8.6561 L 127.826,9.13849 L 127.647,9.61311 L 127.546,10.0877 L 127.507,10.5857 L 127.507,10.5857 L 127.546,11.0603 L 127.647,11.5505 L 127.826,12.0329 L 128.083,12.5075 L 128.41,12.9821 L 128.807,13.4489 L 129.266,13.9002 L 129.795,14.3593 L 130.41,14.795 L 131.071,15.2307 L 131.787,15.6508 L 132.58,16.0477 L 133.436,16.4367 L 134.331,16.8257 L 135.296,17.1836 L 136.307,17.5182 L 137.381,17.8372 L 138.501,18.1484 L 139.645,18.4285 L 140.843,18.7008 L 142.088,18.9576 L 143.356,19.1599 L 144.656,19.3777 L 145.986,19.5489 L 147.348,19.7123 L 148.733,19.8524 L 150.133,19.9613 L 151.534,20.0469 L 152.965,20.1013 L 154.397,20.1325 L 155.829,20.1558 L 155.829,20.1558 L 157.26,20.1325 L 158.708,20.1013 L 160.124,20.0469 L 161.54,19.9613 L 162.932,19.8524 L 164.325,19.7123 L 165.679,19.5489 L 167.002,19.3777 L 168.309,19.1599 L 169.577,18.9576 L 170.822,18.7008 L 172.02,18.4285 L 173.172,18.1484 L 174.277,17.8372 L 175.342,17.5182 L 176.362,17.1836 L 177.342,16.8257 L 178.237,16.4367 L 179.085,16.0477 L 179.871,15.6508 L 180.602,15.2307 L 181.263,14.795 L 181.863,14.3593 L 182.407,13.9002 L 182.851,13.4489 L 183.255,12.9821 L 183.59,12.5075 L 183.839,12.0329 L 184.018,11.5505 L 184.119,11.0603 L 184.158,10.5857"/>
    <path style="fill: none; fill-opacity:0; stroke-width: 0.02; stroke: #000000" d="M 127.507 10.5857 L 127.507,31.0875"/>
    <path style="fill: none; fill-opacity:0; stroke-width: 0.02; stroke: #000000" d="M 184.158 10.5857 L 184.158,31.0875"/>
  </g>
  <g>
    <path style="fill: #b7b79d" d="M 411.58 -3.93259 L 411.58,46.6285 L 441.464,46.6285 L 441.464,-3.93259 L 411.58,-3.93259z"/>
    <path style="fill: none; fill-opacity:0; stroke-width: 0.02; stroke: #494936" d="M 411.58 -3.93259 L 411.58,46.6285 L 441.464,46.6285 L 441.464,-3.93259 L 411.58,-3.93259"/>
    <path style="fill: #c9c9b6" d="M 411.58 -3.93259 L 415.63,-8 L 445.505,-8 L 441.464,-3.93259 L 411.58,-3.93259z"/>
    <path style="fill: none; fill-opacity:0; stroke-width: 0.02; stroke: #494936" d="M 411.58 -3.93259 L 415.63,-8 L 445.308,-8"/>
    <path style="fill: none; fill-opacity:0; stroke-width: 0.02; stroke: #494936" d="M 445.308 -7.79439 L 441.464,-3.93259 L 411.58,-3.93259"/>
    <path style="fill: #c9c9b6" d="M 413.422 -0.991538 L 427.072,-0.991538 L 427.072,5.64147 L 413.422,5.64147 L 413.422,-0.991538z"/>
    <path style="fill: none; fill-opacity:0; stroke-width: 0.02; stroke: #626248" d="M 413.422 -0.991538 L 427.063,-0.991538 L 427.063,5.63253 L 413.422,5.63253 L 413.422,-0.991538"/>
    <path style="fill: none; fill-opacity:0; stroke-width: 0.6; stroke: #ecece7" d="M 415.263 2.33391 L 424.837,2.33391"/>
    <path style="fill: #7a7a5a" d="M 441.464 46.6285 L 445.505,42.5521 L 445.505,-8 L 441.464,-3.93259 L 441.464,46.6285z"/>
    <path style="fill: none; fill-opacity:0; stroke-width: 0.02; stroke: #494936" d="M 441.464 46.6285 L 445.308,42.7577"/>
    <path style="fill: none; fill-opacity:0; stroke-width: 0.02; stroke: #494936" d="M 445.308 -7.79439 L 441.464,-3.93259 L 441.464,46.6285"/>
    <path style="fill: none; fill-opacity:0; stroke-width: 0.6; stroke: #ecece7" d="M 411.955 43.2941 L 441.455,43.2941"/>
    <path style="fill: none; fill-opacity:0; stroke-width: 0.6; stroke: #000000" d="M 411.955 16.3598 L 441.455,16.3598"/>
    <path style="fill: none; fill-opacity:0; stroke-width: 0.6; stroke: #494936" d="M 411.58 42.9276 L 441.429,42.9276"/>
    <path style="fill: none; fill-opacity:0; stroke-width: 0.6; stroke: #000000" d="M 411.58 15.9843 L 441.429,15.9843"/>
    <path style="fill: none; fill-opacity:0; stroke-width: 0.02; stroke: #ecece7" d="M 413.422 5.2839 L 413.422,-0.991538 L 426.696,-0.991538"/>
  </g>
  <text font-size="22.5778" style="fill: #000000;text-anchor:start;font-family:sans-serif;font-style:normal;font-weight:normal" x="141" y="-7">
    <tspan x="141" y="-7">DS</tspan>
  </text>
  <text font-size="22.5778" style="fill: #000000;text-anchor:start;font-family:sans-serif;font-style:normal;font-weight:normal" x="413" y="-17">
    <tspan x="413" y="-17">CA</tspan>
  </text>
  <text font-size="12.8" style="fill: #000000;text-anchor:start;font-family:sans-serif;font-style:normal;font-weight:normal" x="297" y="125">
    <tspan x="297" y="125"></tspan>
  </text>
  <text font-size="12.8" style="fill: #000000;text-anchor:start;font-family:sans-serif;font-style:normal;font-weight:normal" x="163" y="-21">
    <tspan x="163" y="-21"></tspan>
  </text>
  <g>
    <line style="fill: none; fill-opacity:0; stroke-width: 2; stroke: #000000" x1="315.821" y1="108.156" x2="411.58" y2="46.6285"/>
    <polygon style="fill: #000000" points="309.512,112.21 315.222,102.598 315.821,108.156 320.627,111.011 "/>
    <polygon style="fill: none; fill-opacity:0; stroke-width: 2; stroke: #000000" points="309.512,112.21 315.222,102.598 315.821,108.156 320.627,111.011 "/>
  </g>
  <text font-size="12.8" style="fill: #000000;text-anchor:start;font-family:sans-serif;font-style:normal;font-weight:normal" x="455" y="244">
    <tspan x="455" y="244"></tspan>
  </text>
  <text font-size="12.8" style="fill: #000000;text-anchor:start;font-family:sans-serif;font-style:normal;font-weight:normal" x="341" y="121">
    <tspan x="341" y="121">1. Fetch private key</tspan>
  </text>
  <g>
    <line style="fill: none; fill-opacity:0; stroke-width: 2; stroke: #000000" x1="192.416" y1="38.8775" x2="291.858" y2="109.891"/>
    <polygon style="fill: #000000" points="186.312,34.5189 197.356,36.2614 192.416,38.8775 191.544,44.3994 "/>
    <polygon style="fill: none; fill-opacity:0; stroke-width: 2; stroke: #000000" points="186.312,34.5189 197.356,36.2614 192.416,38.8775 191.544,44.3994 "/>
  </g>
  <text font-size="12.8" style="fill: #000000;text-anchor:start;font-family:sans-serif;font-style:normal;font-weight:normal" x="138" y="120">
    <tspan x="138" y="120">2. Send GLM to DS</tspan>
  </text>
  <text font-size="12.8" style="fill: #000000;text-anchor:start;font-family:sans-serif;font-style:normal;font-weight:normal" x="137" y="-62">
    <tspan x="137" y="-62">3. Obtain GLMs</tspan>
    <tspan x="137" y="-46">    for target</tspan>
  </text>
  <text font-size="22.5778" style="fill: #000000;text-anchor:start;font-family:sans-serif;font-style:normal;font-weight:normal" x="277.7" y="-14.6">
    <tspan x="277.7" y="-14.6">LEA</tspan>
  </text>
  <g>
    <path style="fill: #555555" d="M 297.916 -41.0759 L 297.812,-40.4197 L 297.916,-39.9823 L 298.351,-39.6542 L 298.89,-39.4335 L 299.216,-39.5487 L 299.216,-39.8729 L 299.972,-39.5487 L 300.509,-39.3281 L 301.378,-39.2148 L 302.566,-39.2148 L 302.673,-39.5487 L 302.023,-39.9823 L 301.484,-40.4197 L 300.943,-40.7497 L 300.296,-41.0759 L 297.916,-41.0759z"/>
    <path style="fill: none; fill-opacity:0; stroke-width: 0.04; stroke: #000000" d="M 297.916 -41.0759 L 297.812,-40.4197 L 297.916,-39.9823 L 298.351,-39.6542 L 298.89,-39.4335 L 299.216,-39.5487 L 299.216,-39.8729 L 299.972,-39.5487 L 300.509,-39.3281 L 301.378,-39.2148 L 302.566,-39.2148 L 302.673,-39.5487 L 302.023,-39.9823 L 301.484,-40.4197 L 300.943,-40.7497 L 300.296,-41.0759 L 297.916,-41.0759"/>
    <path style="fill: #555555" d="M 294.785 -41.2946 L 294.891,-40.6365 L 294.785,-40.0936 L 294.135,-39.5487 L 293.702,-39.3281 L 293.598,-39 L 291.434,-39 L 291.434,-39.8729 L 291.655,-40.201 L 292.085,-40.6365 L 292.516,-40.9646 L 292.626,-41.4059 L 294.785,-41.2946z"/>
    <path style="fill: none; fill-opacity:0; stroke-width: 0.04; stroke: #000000" d="M 294.785 -41.2946 L 294.891,-40.6365 L 294.785,-40.0936 L 294.135,-39.5487 L 293.702,-39.3281 L 293.598,-39 L 291.434,-39 L 291.434,-39.8729 L 291.655,-40.201 L 292.085,-40.6365 L 292.516,-40.9646 L 292.626,-41.4059 L 294.785,-41.2946"/>
    <path style="fill: #ffe0d4" d="M 298.029 -78.4552 L 298.674,-78.3419 L 299.322,-77.799 L 299.216,-76.2699 L 299.322,-75.7231 L 299.216,-74.8483 L 299.004,-74.1921 L 298.674,-73.8621 L 298.244,-73.8621 L 298.674,-72.9911 L 297.812,-71.8956 L 296.078,-72.9911 L 296.295,-74.0808 L 295.973,-74.9576 L 295.434,-76.0512 L 296.19,-76.5961 L 296.838,-78.3419 L 298.029,-78.4552z"/>
    <path style="fill: none; fill-opacity:0; stroke-width: 0.04; stroke: #000000" d="M 298.029 -78.4552 L 298.674,-78.3419 L 299.322,-77.799 L 299.216,-76.2699 L 299.322,-75.7231 L 299.216,-74.8483 L 299.004,-74.1921 L 298.674,-73.8621 L 298.244,-73.8621 L 298.674,-72.9911 L 297.812,-71.8956 L 296.078,-72.9911 L 296.295,-74.0808 L 295.973,-74.9576 L 295.434,-76.0512 L 296.19,-76.5961 L 296.838,-78.3419 L 298.029,-78.4552"/>
    <path style="fill: #8f5b1a" d="M 299.105 -79 L 296.838,-77.6896 L 297.055,-77.3616 L 297.16,-76.8167 L 297.055,-76.2699 L 296.731,-75.5025 L 296.295,-76.0512 L 295.973,-75.9399 L 295.649,-75.7231 L 296.295,-75.0689 L 296.295,-74.4108 L 296.295,-74.0808 L 295.543,-75.2818 L 295.002,-76.2699 L 294.891,-76.9241 L 295.002,-77.3616 L 295.324,-77.799 L 295.649,-78.1212 L 296.078,-78.3419 L 296.514,-78.5645 L 297.269,-78.7813 L 298.135,-79 L 299.105,-79z"/>
    <path style="fill: none; fill-opacity:0; stroke-width: 0.04; stroke: #000000" d="M 299.105 -79 L 296.838,-77.6896 L 297.055,-77.3616 L 297.16,-76.8167 L 297.055,-76.2699 L 296.731,-75.5025 L 296.295,-76.0512 L 295.973,-75.9399 L 295.649,-75.7231 L 296.295,-75.0689 L 296.295,-74.4108 L 296.295,-74.0808 L 295.543,-75.2818 L 295.002,-76.2699 L 294.891,-76.9241 L 295.002,-77.3616 L 295.324,-77.799 L 295.649,-78.1212 L 296.078,-78.3419 L 296.514,-78.5645 L 297.269,-78.7813 L 298.135,-79 L 299.105,-79"/>
    <path style="fill: #8f5b1a" d="M 298.674 -78.3419 L 299.004,-77.9064 L 299.322,-77.4729 L 299.322,-77.0354 L 299.216,-76.3793 L 300.078,-77.9064 L 299.644,-78.1212 L 298.674,-78.3419z"/>
    <path style="fill: none; fill-opacity:0; stroke-width: 0.04; stroke: #000000" d="M 298.674 -78.3419 L 299.004,-77.9064 L 299.322,-77.4729 L 299.322,-77.0354 L 299.216,-76.3793 L 300.078,-77.9064 L 299.644,-78.1212 L 298.674,-78.3419"/>
    <path style="fill: #000000" d="M 298.457 -76.8167 L 298.244,-76.4847 L 297.486,-76.4847 L 297.596,-76.7054 L 297.812,-76.8167 L 298.457,-76.8167z"/>
    <path style="fill: none; fill-opacity:0; stroke-width: 0.04; stroke: #000000" d="M 298.457 -76.8167 L 298.244,-76.4847 L 297.486,-76.4847 L 297.596,-76.7054 L 297.812,-76.8167 L 298.457,-76.8167"/>
    <path style="fill: #000000" d="M 299.105 -76.7054 L 299.004,-76.8167 L 298.783,-76.7054 L 298.89,-76.4847 L 299.216,-76.5961 L 299.105,-76.7054z"/>
    <path style="fill: none; fill-opacity:0; stroke-width: 0.04; stroke: #000000" d="M 299.105 -76.7054 L 299.004,-76.8167 L 298.783,-76.7054 L 298.89,-76.4847 L 299.216,-76.5961 L 299.105,-76.7054"/>
    <path style="fill: #000000" d="M 298.783 -75.8344 L 298.783,-75.6138 L 298.351,-75.6138 L 298.783,-75.8344z"/>
    <path style="fill: none; fill-opacity:0; stroke-width: 0.04; stroke: #000000" d="M 298.783 -75.8344 L 298.783,-75.6138 L 298.351,-75.6138 L 298.783,-75.8344"/>
    <path style="fill: #000000" d="M 297.916 -74.9576 L 298.783,-74.9576 L 298.566,-75.1763 L 297.916,-74.9576z"/>
    <path style="fill: none; fill-opacity:0; stroke-width: 0.04; stroke: #000000" d="M 297.916 -74.9576 L 298.783,-74.9576 L 298.566,-75.1763 L 297.916,-74.9576"/>
    <path style="fill: #000000" d="M 298.351 -74.737 L 298.566,-74.737 L 298.457,-74.5202 L 298.351,-74.737z"/>
    <path style="fill: none; fill-opacity:0; stroke-width: 0.04; stroke: #000000" d="M 298.351 -74.737 L 298.566,-74.737 L 298.457,-74.5202 L 298.351,-74.737"/>
    <path style="fill: #d4f3ff" d="M 296.295 -73.6492 L 298.029,-72.2256 L 298.566,-73.2079 L 299.322,-72.7724 L 299.433,-70.0384 L 298.244,-65.2286 L 295.434,-69.7103 L 295.106,-72.4463 L 295.649,-72.8798 L 295.973,-73.0966 L 296.295,-73.6492z"/>
    <path style="fill: none; fill-opacity:0; stroke-width: 0.04; stroke: #000000" d="M 296.295 -73.6492 L 298.029,-72.2256 L 298.566,-73.2079 L 299.322,-72.7724 L 299.433,-70.0384 L 298.244,-65.2286 L 295.434,-69.7103 L 295.106,-72.4463 L 295.649,-72.8798 L 295.973,-73.0966 L 296.295,-73.6492"/>
    <path style="fill: #005a80" d="M 298.029 -72.0069 L 297.812,-72.2256 L 297.596,-71.7901 L 297.812,-71.6769 L 297.379,-66.9783 L 298.351,-64.9025 L 298.783,-66.9783 L 298.566,-67.7438 L 298.135,-71.5675 L 298.457,-71.7901 L 298.244,-72.1143 L 298.029,-72.0069z"/>
    <path style="fill: none; fill-opacity:0; stroke-width: 0.04; stroke: #000000" d="M 298.029 -72.0069 L 297.812,-72.2256 L 297.596,-71.7901 L 297.812,-71.6769 L 297.379,-66.9783 L 298.351,-64.9025 L 298.783,-66.9783 L 298.566,-67.7438 L 298.135,-71.5675 L 298.457,-71.7901 L 298.244,-72.1143 L 298.029,-72.0069"/>
    <path style="fill: #aaaaaa" d="M 291.003 -65.5606 L 291.22,-67.0877 L 291.434,-69.3823 L 291.655,-70.9113 L 291.542,-71.2414 L 292.839,-71.8956 L 293.92,-72.1143 L 295.002,-72.5517 L 295.649,-72.8798 L 296.621,-70.1497 L 298.244,-65.996 L 299.004,-70.3665 L 299.004,-72.9911 L 301.591,-71.8956 L 302.351,-71.5675 L 302.782,-71.132 L 302.673,-70.6946 L 302.566,-69.8217 L 302.454,-68.4019 L 302.782,-66.3222 L 302.997,-64.3576 L 301.161,-61.5162 L 301.591,-60.0946 L 301.591,-59.2197 L 301.269,-59.1103 L 301.161,-51.0236 L 300.621,-40.9646 L 297.699,-40.8552 L 297.596,-52.3301 L 297.486,-55.3941 L 296.621,-50.0374 L 295.973,-45.8838 L 295.217,-41.0759 L 292.407,-41.0759 L 292.626,-43.9172 L 293.059,-47.1941 L 293.165,-50.1449 L 293.381,-53.9724 L 293.487,-57.2512 L 293.598,-58.0167 L 293.702,-59.1103 L 293.165,-59.2197 L 293.598,-60.6375 L 291.22,-63.264 L 291.003,-64.2443 L 291.003,-65.4473 L 291.003,-65.5606 L 291.003,-65.5606 L 293.381,-65.5606 L 293.487,-65.668 L 293.92,-66.9783 L 294.03,-65.5606 L 294.243,-64.0237 L 293.381,-64.7911 L 293.381,-65.5606 L 291.003,-65.5606z"/>
    <path style="fill: #aaaaaa" d="M 291.003 -65.5606 L 291.22,-67.0877 L 291.434,-69.3823 L 291.655,-70.9113 L 291.542,-71.2414 L 292.839,-71.8956 L 293.92,-72.1143 L 295.002,-72.5517 L 295.649,-72.8798 L 296.621,-70.1497 L 298.244,-65.996 L 299.004,-70.3665 L 299.004,-72.9911 L 301.591,-71.8956 L 302.351,-71.5675 L 302.782,-71.132 L 302.673,-70.6946 L 302.566,-69.8217 L 302.454,-68.4019 L 302.782,-66.3222 L 302.997,-64.3576 L 301.161,-61.5162 L 301.591,-60.0946 L 301.591,-59.2197 L 301.269,-59.1103 L 301.161,-51.0236 L 300.621,-40.9646 L 297.699,-40.8552 L 297.596,-52.3301 L 297.486,-55.3941 L 296.621,-50.0374 L 295.973,-45.8838 L 295.217,-41.0759 L 292.407,-41.0759 L 292.626,-43.9172 L 293.059,-47.1941 L 293.165,-50.1449 L 293.381,-53.9724 L 293.487,-57.2512 L 293.598,-58.0167 L 293.702,-59.1103 L 293.165,-59.2197 L 293.598,-60.6375 L 291.22,-63.264 L 291.003,-64.2443 L 291.003,-65.4473 L 291.003,-65.5606 L 293.381,-65.5606 L 293.487,-65.668 L 293.92,-66.9783 L 294.03,-65.5606 L 294.243,-64.0237 L 293.381,-64.7911 L 293.381,-65.5606 L 291.003,-65.5606z"/>
    <path style="fill: none; fill-opacity:0; stroke-width: 0.04; stroke: #aaaaaa" d="M 291.018 -65.6699 L 291.22,-67.0877 L 291.434,-69.3823 L 291.655,-70.9113 L 291.542,-71.2414 L 292.839,-71.8956 L 293.92,-72.1143 L 295.002,-72.5517 L 295.649,-72.8798 L 296.621,-70.1497 L 298.244,-65.996 L 299.004,-70.3665 L 299.004,-72.9911 L 301.591,-71.8956 L 302.351,-71.5675 L 302.782,-71.132 L 302.673,-70.6946 L 302.566,-69.8217 L 302.454,-68.4019 L 302.782,-66.3222 L 302.997,-64.3576 L 301.161,-61.5162 L 301.591,-60.0946 L 301.591,-59.2197 L 301.269,-59.1103 L 301.161,-51.0236 L 300.621,-40.9646 L 297.699,-40.8552 L 297.596,-52.3301 L 297.486,-55.3941 L 296.621,-50.0374 L 295.973,-45.8838 L 295.217,-41.0759 L 292.407,-41.0759 L 292.626,-43.9172 L 293.059,-47.1941 L 293.165,-50.1449 L 293.381,-53.9724 L 293.487,-57.2512 L 293.598,-58.0167 L 293.702,-59.1103 L 293.165,-59.2197 L 293.598,-60.6375 L 291.22,-63.264 L 291.018,-64.174"/>
    <path style="fill: none; fill-opacity:0; stroke-width: 0.04; stroke: #aaaaaa" d="M 291.018 -65.5606 L 293.381,-65.5606 L 293.487,-65.668 L 293.92,-66.9783 L 294.03,-65.5606 L 294.243,-64.0237 L 293.381,-64.7911 L 293.381,-65.5606 L 291.018,-65.5606"/>
    <path style="fill: none; fill-opacity:0; stroke-width: 0.04; stroke: #000000" d="M 291.018 -65.6699 L 291.22,-67.0877 L 291.434,-69.3823 L 291.655,-70.9113 L 291.542,-71.2414 L 292.839,-71.8956 L 293.92,-72.1143 L 295.002,-72.5517 L 295.649,-72.8798 L 296.621,-70.1497 L 298.244,-65.996 L 299.004,-70.3665 L 299.004,-72.9911 L 301.591,-71.8956 L 302.351,-71.5675 L 302.782,-71.132 L 302.673,-70.6946 L 302.566,-69.8217 L 302.454,-68.4019 L 302.782,-66.3222 L 302.997,-64.3576 L 301.161,-61.5162 L 301.591,-60.0946 L 301.591,-59.2197 L 301.269,-59.1103 L 301.161,-51.0236 L 300.621,-40.9646 L 297.699,-40.8552 L 297.596,-52.3301 L 297.486,-55.3941 L 296.621,-50.0374 L 295.973,-45.8838 L 295.217,-41.0759 L 292.407,-41.0759 L 292.626,-43.9172 L 293.059,-47.1941 L 293.165,-50.1449 L 293.381,-53.9724 L 293.487,-57.2512 L 293.598,-58.0167 L 293.702,-59.1103 L 293.165,-59.2197 L 293.598,-60.6375 L 291.22,-63.264 L 291.018,-64.174"/>
    <path style="fill: none; fill-opacity:0; stroke-width: 0.04; stroke: #000000" d="M 293.92 -66.9783 L 294.03,-65.5606 L 294.243,-64.0237 L 293.381,-64.7911 L 293.487,-65.668 L 293.92,-66.9783"/>
  </g>
  <g>
    <line style="fill: none; fill-opacity:0; stroke-width: 2; stroke: #000000" x1="282.97" y1="-58.6722" x2="184.492" y2="8.78059"/>
    <polygon style="fill: #000000" points="289.158,-62.9104 283.733,-53.1343 282.97,-58.6722 278.082,-61.3845 "/>
    <polygon style="fill: none; fill-opacity:0; stroke-width: 2; stroke: #000000" points="289.158,-62.9104 283.733,-53.1343 282.97,-58.6722 278.082,-61.3845 "/>
  </g>
  <g>
    <line style="fill: none; fill-opacity:0; stroke-width: 2; stroke: #000000" x1="311.704" y1="-60.0009" x2="415.63" y2="-8"/>
    <polygon style="fill: #000000" points="304.997,-63.357 316.177,-63.3537 311.704,-60.0009 311.702,-54.4108 "/>
    <polygon style="fill: none; fill-opacity:0; stroke-width: 2; stroke: #000000" points="304.997,-63.357 316.177,-63.3537 311.704,-60.0009 311.702,-54.4108 "/>
  </g>
  <text font-size="12.8" style="fill: #000000;text-anchor:start;font-family:sans-serif;font-style:normal;font-weight:normal" x="345" y="-63">
    <tspan x="345" y="-63">4. Obtain decryption</tspan>
    <tspan x="345" y="-47">    keys for GLMs</tspan>
  </text>
</svg>
